<svg width="24" height="24" viewBox="0 0 24 24" fill="none" xmlns="http://www.w3.org/2000/svg">
<g id="SVG">
<path id="Vector" d="M12.4597 10.2167C9.78389 9.52833 8.92338 8.81667 8.92338 7.70833C8.92338 6.43667 10.1139 5.55 12.1061 5.55C14.2043 5.55 14.9823 6.54167 15.053 8H17.6582C17.5756 5.99333 16.3379 4.15 13.8743 3.555V1H10.3379V3.52C8.05108 4.01 6.21218 5.48 6.21218 7.73167C6.21218 10.4267 8.46365 11.7683 11.7525 12.55C14.6994 13.25 15.2888 14.2767 15.2888 15.3617C15.2888 16.1667 14.7112 17.45 12.1061 17.45C9.6778 17.45 8.72299 16.3767 8.59332 15H6C6.14145 17.555 8.07466 18.99 10.3379 19.4683V22H13.8743V19.4917C16.1729 19.06 18 17.7417 18 15.35C18 12.0367 15.1356 10.905 12.4597 10.2167Z" fill="white"/>
</g>
</svg>
