<svg width="118" height="114" viewBox="0 0 118 114" fill="none" xmlns="http://www.w3.org/2000/svg">
<g id="Group">
<path id="Vector" d="M39.4764 0.544312H0.490723V113.41H39.4764V54.3862V37.4363V31.5378V0.544312Z" fill="#A3D9B4"/>
<path id="Vector_2" d="M115.306 27.4461C114.178 22.8382 111.979 18.6892 108.853 14.9417C104.962 10.3337 100.297 6.79654 94.7618 4.28226C89.2266 1.76798 82.5729 0.486938 74.8293 0.486938H58.7971V31.4804H59.973C62.4299 31.4804 64.6861 31.8437 66.8849 32.5607C69.0359 33.2777 70.9861 34.511 72.6783 36.1935C74.6763 38.1916 76.1103 40.9066 76.8751 44.2909C77.6399 47.6751 78.051 52.0822 78.051 57.5601V113.352H117.037V43.1628C117.037 37.2738 116.473 32.0445 115.297 27.4366L115.306 27.4461Z" fill="white"/>
</g>
</svg>
