<svg width="140" height="32" viewBox="0 0 140 32" fill="none" xmlns="http://www.w3.org/2000/svg">
<g id="NF_White 2">
<g id="Group">
<g id="Group_2">
<path id="Vector" d="M49.1583 0.60791H54.2463V23.847H49.1583V22.2585C48.082 23.6117 46.6143 24.298 44.7747 24.298C43.7376 24.298 42.7787 24.1019 41.898 23.7097C41.0174 23.3175 40.2542 22.7684 39.6084 22.082C38.9626 21.3956 38.4538 20.5719 38.082 19.6502C37.7102 18.7089 37.5341 17.7087 37.5341 16.6301C37.5341 15.6104 37.7102 14.6298 38.0429 13.7081C38.3951 12.7864 38.8843 11.9823 39.5106 11.2959C40.1368 10.6095 40.9 10.0604 41.7806 9.66821C42.6612 9.27599 43.6397 9.06027 44.6965 9.06027C46.4773 9.06027 47.9646 9.68782 49.1387 10.9429V0.60791H49.1583ZM42.7982 16.6105C42.7982 17.0812 42.8765 17.5126 43.0526 17.9048C43.2288 18.2971 43.444 18.6501 43.7376 18.9638C44.0311 19.258 44.3638 19.4933 44.7747 19.6698C45.1661 19.8463 45.6162 19.9248 46.0663 19.9248C46.5164 19.9248 46.9274 19.8463 47.3383 19.6698C47.7297 19.4933 48.082 19.2776 48.3755 18.9638C48.6691 18.6697 48.9039 18.3167 49.08 17.9245C49.2561 17.5322 49.354 17.1204 49.354 16.6694C49.354 16.2183 49.2561 15.8065 49.08 15.3946C48.9039 15.0024 48.6691 14.6494 48.3755 14.3356C48.082 14.0415 47.7493 13.8061 47.3383 13.6296C46.947 13.4531 46.5164 13.3747 46.0663 13.3747C45.6162 13.3747 45.2053 13.4531 44.7943 13.6296C44.4029 13.8061 44.0507 14.0219 43.7571 14.3356C43.4636 14.6298 43.2288 14.9828 43.0526 15.3554C42.8765 15.7476 42.7787 16.1595 42.7787 16.6105H42.7982Z" fill="white"/>
<path id="Vector_2" d="M76.1641 9.49174V6.82464C76.1641 5.8637 76.3598 4.9812 76.7707 4.15754C77.1621 3.33388 77.7101 2.60827 78.395 1.98072C79.0799 1.37277 79.8627 0.882497 80.7629 0.529498C81.6631 0.176499 82.622 0 83.62 0C84.6181 0 85.577 0.176499 86.4771 0.529498C87.3773 0.882497 88.1797 1.37277 88.8451 1.98072C89.53 2.58866 90.0584 3.31427 90.4693 4.15754C90.8607 4.9812 91.076 5.88331 91.076 6.82464V23.847H86.0271V6.82464C86.0271 6.49125 85.9683 6.15787 85.8509 5.8637C85.7335 5.54992 85.5574 5.27537 85.3421 5.04004C85.1269 4.80471 84.8725 4.60859 84.5789 4.45171C84.2854 4.29482 83.9723 4.23599 83.62 4.23599C83.2678 4.23599 82.9351 4.31443 82.6415 4.45171C82.348 4.60859 82.0936 4.78509 81.8783 5.02043C81.6826 5.25576 81.5065 5.53031 81.3891 5.84409C81.2717 6.15787 81.213 6.49125 81.213 6.82464V9.49174H84.1093V13.7081H81.213V23.847H76.1641V13.7081H74.3441V9.49174H76.1641Z" fill="white"/>
<path id="Vector_3" d="M136.516 13.708V23.847H131.467V13.708H129.784V9.49168H131.467V5.17725H136.516V9.49168H139.393V13.708H136.516Z" fill="white"/>
<path id="Vector_4" d="M103.385 20.1994C102.916 20.3759 102.426 20.4544 101.918 20.4544C101.213 20.4544 100.587 20.2975 99.9997 19.9837C99.6279 19.7876 99.3148 19.5327 99.0604 19.2189L109.589 15.8654C109.197 13.6101 108.336 11.8647 107.006 10.6685C105.675 9.4722 103.992 8.86426 101.918 8.86426C100.391 8.86426 98.9821 9.21726 97.7297 9.90364C96.4773 10.59 95.4792 11.5314 94.7356 12.6884C93.9919 13.8455 93.6201 15.1594 93.6201 16.6106C93.6201 18.0618 93.9332 19.4738 94.579 20.6309C95.2248 21.7879 96.1446 22.7097 97.3579 23.3764C98.5712 24.0432 100.058 24.357 101.82 24.357C102.602 24.357 103.444 24.2197 104.344 23.9648C105.225 23.7098 106.066 23.3568 106.829 22.9058L104.794 19.4738C104.325 19.768 103.874 19.9837 103.405 20.1602L103.385 20.1994ZM98.5712 14.3161C98.8452 13.7278 99.2365 13.2767 99.7649 12.963C100.274 12.6492 100.88 12.4923 101.565 12.4923C102.465 12.4923 103.131 12.708 103.581 13.1395C104.011 13.5513 104.305 14.022 104.481 14.5515L98.1798 16.6891C98.1798 16.6891 98.1798 16.493 98.1798 16.3949C98.1798 15.6105 98.3168 14.9241 98.5908 14.3357L98.5712 14.3161Z" fill="white"/>
<path id="Vector_5" d="M66.7708 20.1994C66.3011 20.3759 65.8119 20.4544 65.3031 20.4544C64.5986 20.4544 63.9723 20.2975 63.3852 19.9837C63.0134 19.7876 62.7003 19.5327 62.4459 19.2189L72.9743 15.8654C72.5829 13.6101 71.7218 11.8647 70.3911 10.6685C69.0604 9.4722 67.3774 8.86426 65.3031 8.86426C63.7766 8.86426 62.3676 9.21726 61.1152 9.90364C59.8628 10.59 58.8647 11.5314 58.1211 12.6884C57.3774 13.8455 57.0056 15.1594 57.0056 16.6106C57.0056 18.0618 57.3187 19.4738 57.9645 20.6309C58.6103 21.7879 59.5301 22.7097 60.7434 23.3764C61.9567 24.0432 63.444 24.357 65.2052 24.357C65.988 24.357 66.8295 24.2197 67.7297 23.9648C68.6103 23.7098 69.4518 23.3568 70.215 22.9058L68.1798 19.4738C67.7101 19.768 67.26 19.9837 66.7903 20.1602L66.7708 20.1994ZM61.9567 14.3161C62.2307 13.7278 62.622 13.2767 63.1504 12.963C63.6592 12.6492 64.2659 12.4923 64.9508 12.4923C65.851 12.4923 66.5164 12.708 66.9665 13.1395C67.397 13.5513 67.6905 14.022 67.8666 14.5515L61.5653 16.6891C61.5653 16.6891 61.5653 16.493 61.5653 16.3949C61.5653 15.6105 61.7023 14.9241 61.9763 14.3357L61.9567 14.3161Z" fill="white"/>
<path id="Vector_6" d="M121.585 20.1994C121.115 20.3759 120.626 20.4544 120.117 20.4544C119.413 20.4544 118.786 20.2975 118.199 19.9837C117.827 19.7876 117.514 19.5327 117.26 19.2189L127.788 15.8654C127.397 13.6101 126.536 11.8647 125.205 10.6685C123.874 9.4722 122.191 8.86426 120.117 8.86426C118.591 8.86426 117.182 9.21726 115.929 9.90364C114.677 10.59 113.679 11.5314 112.935 12.6884C112.191 13.8455 111.82 15.1594 111.82 16.6106C111.82 18.0618 112.133 19.4738 112.778 20.6309C113.424 21.7879 114.344 22.7097 115.557 23.3764C116.771 24.0432 118.258 24.357 120.019 24.357C120.802 24.357 121.643 24.2197 122.544 23.9648C123.424 23.7098 124.266 23.3568 125.029 22.9058L122.994 19.4738C122.524 19.768 122.074 19.9837 121.604 20.1602L121.585 20.1994ZM116.771 14.3161C117.045 13.7278 117.436 13.2767 117.964 12.963C118.473 12.6492 119.08 12.4923 119.765 12.4923C120.665 12.4923 121.33 12.708 121.78 13.1395C122.211 13.5513 122.504 14.022 122.681 14.5515L116.379 16.6891C116.379 16.6891 116.379 16.493 116.379 16.3949C116.379 15.6105 116.516 14.9241 116.79 14.3357L116.771 14.3161Z" fill="white"/>
<path id="Vector_7" d="M18.4343 16.5909C18.4343 15.1201 18.7866 13.8062 19.4715 12.6295C20.1564 11.4724 21.1349 10.5507 22.3873 9.88395C23.6398 9.21718 25.0684 8.88379 26.6926 8.88379C28.3169 8.88379 29.765 9.21718 30.9783 9.88395C32.1916 10.5507 33.1114 11.4724 33.7572 12.6295C34.403 13.7865 34.7357 15.1201 34.7357 16.5909C34.7357 18.0618 34.403 19.3953 33.7572 20.572C33.1114 21.7486 32.1916 22.6704 30.9783 23.3567C29.765 24.0431 28.3169 24.3765 26.6339 24.3765C25.0488 24.3765 23.6398 24.0627 22.4069 23.4548C21.174 22.8469 20.1956 21.9447 19.4911 20.7877C18.7866 19.6306 18.4343 18.2186 18.4343 16.5909ZM23.0723 16.6301C23.0723 17.3754 23.2288 18.0618 23.5419 18.6501C23.8551 19.258 24.266 19.7287 24.7944 20.0817C25.3228 20.4347 25.9098 20.6112 26.5752 20.6112C27.2993 20.6112 27.9255 20.4347 28.4539 20.0817C28.9822 19.7287 29.3932 19.258 29.6672 18.6501C29.9607 18.0421 30.0977 17.3754 30.0977 16.6301C30.0977 15.8849 29.9607 15.1789 29.6672 14.5906C29.3736 14.0023 28.9822 13.5316 28.4539 13.1786C27.9255 12.8256 27.2993 12.6491 26.5752 12.6491C25.9098 12.6491 25.3228 12.8256 24.7944 13.1786C24.266 13.5316 23.8551 14.0023 23.5419 14.5906C23.2288 15.1789 23.0723 15.8653 23.0723 16.6301Z" fill="white"/>
<g id="Group_3">
<path id="Vector_8" d="M5.04891 9.17798H0V23.847H5.04891V16.1791V13.9827V13.2179V9.17798Z" fill="white"/>
<path id="Vector_9" d="M14.8923 12.6686C14.7358 12.0802 14.4618 11.5311 14.0508 11.0409C13.542 10.4525 12.9354 9.98187 12.2309 9.64848C11.5068 9.31509 10.6458 9.1582 9.64772 9.1582H7.57336V13.1981H7.72992C8.04303 13.1981 8.33657 13.2373 8.63011 13.3354C8.90408 13.4334 9.15849 13.5903 9.39332 13.806C9.64772 14.061 9.84342 14.414 9.94126 14.865C10.0391 15.2965 10.0978 15.8848 10.0978 16.5908V23.8469H15.1467V14.7277C15.1467 13.9629 15.0685 13.2765 14.9315 12.6882L14.8923 12.6686Z" fill="white"/>
</g>
</g>
<g id="Group_4">
<path id="Vector_10" d="M98.1014 30.9854L134.99 30.9854C136.017 30.9854 136.849 30.1512 136.849 29.1223C136.849 28.0934 136.017 27.2593 134.99 27.2593L98.1014 27.2593C97.0747 27.2593 96.2423 28.0934 96.2423 29.1223C96.2423 30.1512 97.0747 30.9854 98.1014 30.9854Z" fill="white"/>
<path id="Vector_11" d="M88.4342 30.9854H92.896C93.9228 30.9854 94.7551 30.1512 94.7551 29.1223C94.7551 28.0934 93.9228 27.2593 92.896 27.2593H88.4342C87.4075 27.2593 86.5751 28.0934 86.5751 29.1223C86.5751 30.1512 87.4075 30.9854 88.4342 30.9854Z" fill="white"/>
<path id="Vector_12" d="M76.9078 29.3185L80.5477 31.4169C80.9391 31.6522 81.4479 31.3581 81.4479 30.907V27.3574C81.4479 26.8867 80.9587 26.6122 80.5477 26.8475L76.9078 28.9459C76.7513 29.0243 76.7513 29.2401 76.9078 29.3381V29.3185Z" fill="white"/>
<path id="Vector_13" d="M84.3893 28.3504L85.0535 29.016C85.0535 29.016 85.1227 29.1685 85.0535 29.2379L84.3893 29.9035C83.9604 30.3334 83.2823 30.3195 82.8672 29.9035C82.4382 29.4736 82.452 28.7941 82.8672 28.3781C83.2961 27.9482 83.9742 27.9621 84.3893 28.3781L84.3893 28.3504Z" fill="white"/>
</g>
</g>
</g>
</svg>
