<svg width="138" height="31" viewBox="0 0 138 31" fill="none" xmlns="http://www.w3.org/2000/svg">
<g id="NF_Green 1" clip-path="url(#clip0_855_404)">
<g id="b">
<g id="c">
<g id="Group">
<g id="Group_2">
<path id="Vector" d="M48.6671 0.598022H53.7043V23.4574H48.6671V21.8948C47.6016 23.2259 46.1485 23.9011 44.3274 23.9011C43.3006 23.9011 42.3513 23.7082 41.4794 23.3224C40.6076 22.9365 39.852 22.3964 39.2127 21.7212C38.5733 21.0461 38.0696 20.2359 37.7015 19.3292C37.3334 18.4032 37.1591 17.4194 37.1591 16.3584C37.1591 15.3553 37.3334 14.3908 37.6628 13.4841C38.0115 12.5775 38.4959 11.7866 39.1158 11.1114C39.7358 10.4362 40.4914 9.89609 41.3632 9.51028C42.235 9.12447 43.2037 8.91227 44.2499 8.91227C46.0129 8.91227 47.4853 9.52957 48.6478 10.7642V0.598022H48.6671ZM42.3706 16.3392C42.3706 16.8021 42.4481 17.2265 42.6225 17.6123C42.7969 17.9981 43.01 18.3454 43.3006 18.654C43.5912 18.9434 43.9205 19.1749 44.3274 19.3485C44.7149 19.5221 45.1605 19.5993 45.6061 19.5993C46.0517 19.5993 46.4585 19.5221 46.8654 19.3485C47.2528 19.1749 47.6016 18.9627 47.8922 18.654C48.1828 18.3647 48.4153 18.0174 48.5896 17.6316C48.764 17.2458 48.8609 16.8407 48.8609 16.397C48.8609 15.9533 48.764 15.5482 48.5896 15.1431C48.4153 14.7573 48.1828 14.4101 47.8922 14.1014C47.6016 13.8121 47.2722 13.5806 46.8654 13.407C46.4779 13.2334 46.0517 13.1562 45.6061 13.1562C45.1605 13.1562 44.7536 13.2334 44.3468 13.407C43.9593 13.5806 43.6106 13.7928 43.3199 14.1014C43.0293 14.3908 42.7969 14.738 42.6225 15.1046C42.4481 15.4904 42.3513 15.8955 42.3513 16.3392H42.3706Z" fill="#99DFAF"/>
<path id="Vector_2" d="M75.4031 9.33665V6.71313C75.4031 5.76789 75.5968 4.89981 76.0037 4.08961C76.3911 3.2794 76.9336 2.56565 77.6117 1.94835C78.2898 1.35034 79.0647 0.868077 79.9559 0.520846C80.8471 0.173615 81.7965 0 82.7845 0C83.7726 0 84.7219 0.173615 85.6131 0.520846C86.5043 0.868077 87.2986 1.35034 87.9573 1.94835C88.6354 2.54636 89.1585 3.26011 89.5654 4.08961C89.9528 4.89981 90.166 5.78718 90.166 6.71313V23.4574H85.1675V6.71313C85.1675 6.38519 85.1094 6.05725 84.9931 5.76789C84.8769 5.45924 84.7025 5.18917 84.4894 4.95769C84.2763 4.7262 84.0245 4.53329 83.7338 4.37897C83.4432 4.22464 83.1333 4.16677 82.7845 4.16677C82.4358 4.16677 82.1064 4.24393 81.8158 4.37897C81.5252 4.53329 81.2734 4.70691 81.0602 4.9384C80.8665 5.16988 80.6921 5.43995 80.5759 5.7486C80.4597 6.05725 80.4015 6.38519 80.4015 6.71313V9.33665H83.2689V13.4841H80.4015V23.4574H75.4031V13.4841H73.6013V9.33665H75.4031Z" fill="#99DFAF"/>
<path id="Vector_3" d="M135.152 13.4842V23.4574H130.154V13.4842H128.487V9.33671H130.154V5.09277H135.152V9.33671H138V13.4842H135.152Z" fill="#99DFAF"/>
<path id="Vector_4" d="M102.352 19.8693C101.887 20.0429 101.403 20.1201 100.899 20.1201C100.202 20.1201 99.5817 19.9658 99.0004 19.6571C98.6323 19.4642 98.3224 19.2134 98.0705 18.9048L108.494 15.6061C108.106 13.3877 107.254 11.6708 105.936 10.4941C104.619 9.31737 102.953 8.71936 100.899 8.71936C99.3879 8.71936 97.993 9.06659 96.7531 9.74176C95.5131 10.4169 94.5251 11.3429 93.7889 12.481C93.0527 13.6192 92.6846 14.9116 92.6846 16.3391C92.6846 17.7667 92.9946 19.1556 93.6339 20.2937C94.2732 21.4319 95.1838 22.3385 96.385 22.9944C97.5862 23.6503 99.0586 23.9589 100.802 23.9589C101.577 23.9589 102.41 23.8239 103.301 23.5731C104.173 23.3223 105.006 22.9751 105.762 22.5314L103.747 19.1556C103.282 19.4449 102.836 19.6571 102.371 19.8307L102.352 19.8693ZM97.5862 14.0821C97.8574 13.5034 98.2449 13.0597 98.768 12.7511C99.2717 12.4424 99.8723 12.2881 100.55 12.2881C101.442 12.2881 102.1 12.5003 102.546 12.9247C102.972 13.3298 103.263 13.7928 103.437 14.3136L97.1987 16.4163C97.1987 16.4163 97.1987 16.2234 97.1987 16.127C97.1987 15.3553 97.3343 14.6802 97.6055 14.1014L97.5862 14.0821Z" fill="#99DFAF"/>
<path id="Vector_5" d="M66.1036 19.8693C65.6386 20.0429 65.1543 20.1201 64.6506 20.1201C63.9531 20.1201 63.3331 19.9658 62.7519 19.6571C62.3838 19.4642 62.0738 19.2134 61.822 18.9048L72.2451 15.6061C71.8576 13.3877 71.0052 11.6708 69.6878 10.4941C68.3703 9.31737 66.7042 8.71936 64.6506 8.71936C63.1394 8.71936 61.7445 9.06659 60.5045 9.74176C59.2646 10.4169 58.2766 11.3429 57.5403 12.481C56.8041 13.6192 56.436 14.9116 56.436 16.3391C56.436 17.7667 56.746 19.1556 57.3854 20.2937C58.0247 21.4319 58.9353 22.3385 60.1364 22.9944C61.3376 23.6503 62.81 23.9589 64.5537 23.9589C65.3286 23.9589 66.1617 23.8239 67.0529 23.5731C67.9247 23.3223 68.7578 22.9751 69.5134 22.5314L67.4985 19.1556C67.0335 19.4449 66.5879 19.6571 66.123 19.8307L66.1036 19.8693ZM61.3376 14.0821C61.6089 13.5034 61.9963 13.0597 62.5194 12.7511C63.0231 12.4424 63.6237 12.2881 64.3018 12.2881C65.193 12.2881 65.8517 12.5003 66.2973 12.9247C66.7236 13.3298 67.0142 13.7928 67.1885 14.3136L60.9501 16.4163C60.9501 16.4163 60.9501 16.2234 60.9501 16.127C60.9501 15.3553 61.0858 14.6802 61.357 14.1014L61.3376 14.0821Z" fill="#99DFAF"/>
<path id="Vector_6" d="M120.37 19.8693C119.905 20.0429 119.421 20.1201 118.917 20.1201C118.219 20.1201 117.599 19.9658 117.018 19.6571C116.65 19.4642 116.34 19.2134 116.088 18.9048L126.511 15.6061C126.124 13.3877 125.271 11.6708 123.954 10.4941C122.637 9.31737 120.97 8.71936 118.917 8.71936C117.406 8.71936 116.011 9.06659 114.771 9.74176C113.531 10.4169 112.543 11.3429 111.807 12.481C111.07 13.6192 110.702 14.9116 110.702 16.3391C110.702 17.7667 111.012 19.1556 111.652 20.2937C112.291 21.4319 113.201 22.3385 114.403 22.9944C115.604 23.6503 117.076 23.9589 118.82 23.9589C119.595 23.9589 120.428 23.8239 121.319 23.5731C122.191 23.3223 123.024 22.9751 123.78 22.5314L121.765 19.1556C121.3 19.4449 120.854 19.6571 120.389 19.8307L120.37 19.8693ZM115.604 14.0821C115.875 13.5034 116.263 13.0597 116.786 12.7511C117.289 12.4424 117.89 12.2881 118.568 12.2881C119.459 12.2881 120.118 12.5003 120.564 12.9247C120.99 13.3298 121.28 13.7928 121.455 14.3136L115.216 16.4163C115.216 16.4163 115.216 16.2234 115.216 16.127C115.216 15.3553 115.352 14.6802 115.623 14.1014L115.604 14.0821Z" fill="#99DFAF"/>
<path id="Vector_7" d="M18.2501 16.3199C18.2501 14.8731 18.5989 13.5806 19.2769 12.4232C19.955 11.285 20.9237 10.3783 22.1636 9.72247C23.4036 9.06659 24.8179 8.73865 26.4259 8.73865C28.0339 8.73865 29.4676 9.06659 30.6688 9.72247C31.8699 10.3783 32.7805 11.285 33.4199 12.4232C34.0592 13.5613 34.3885 14.8731 34.3885 16.3199C34.3885 17.7666 34.0592 19.0784 33.4199 20.2358C32.7805 21.3933 31.8699 22.2999 30.6688 22.9751C29.4676 23.6503 28.0339 23.9782 26.3678 23.9782C24.7985 23.9782 23.4036 23.6696 22.183 23.0716C20.9625 22.4736 19.9938 21.5862 19.2963 20.448C18.5989 19.3099 18.2501 17.921 18.2501 16.3199ZM22.8417 16.3584C22.8417 17.0915 22.9967 17.7667 23.3067 18.3454C23.6167 18.9434 24.0235 19.4064 24.5466 19.7536C25.0697 20.1008 25.6509 20.2744 26.3096 20.2744C27.0265 20.2744 27.6464 20.1008 28.1695 19.7536C28.6926 19.4064 29.0995 18.9434 29.3707 18.3454C29.6613 17.7474 29.7969 17.0915 29.7969 16.3584C29.7969 15.6254 29.6613 14.9309 29.3707 14.3522C29.0801 13.7735 28.6926 13.3105 28.1695 12.9633C27.6464 12.6161 27.0265 12.4424 26.3096 12.4424C25.6509 12.4424 25.0697 12.6161 24.5466 12.9633C24.0235 13.3105 23.6167 13.7735 23.3067 14.3522C22.9967 14.9309 22.8417 15.6061 22.8417 16.3584Z" fill="#99DFAF"/>
<g id="Group_3">
<path id="Vector_8" d="M4.99846 9.02795H0V23.4573H4.99846V15.9147V13.7542V13.0018V9.02795Z" fill="#99DFAF"/>
<path id="Vector_9" d="M14.7435 12.4617C14.5885 11.883 14.3173 11.3428 13.9104 10.8606C13.4067 10.2818 12.8061 9.81887 12.1087 9.49093C11.3918 9.16299 10.5394 9.00867 9.55131 9.00867H7.49768V12.9825H7.65267C7.96265 12.9825 8.25326 13.0211 8.54387 13.1176C8.8151 13.214 9.06696 13.3683 9.29945 13.5805C9.55131 13.8313 9.74505 14.1785 9.84192 14.6222C9.93879 15.0466 9.99691 15.6253 9.99691 16.3198V23.4573H14.9954V14.4872C14.9954 13.7349 14.9179 13.0597 14.7823 12.481L14.7435 12.4617Z" fill="#99DFAF"/>
</g>
</g>
<g id="Group_4">
<path id="Vector_10" d="M97.1211 30.4791L133.641 30.4791C134.657 30.4791 135.481 29.6586 135.481 28.6465C135.481 27.6344 134.657 26.8139 133.641 26.8139L97.1211 26.8139C96.1046 26.8139 95.2806 27.6344 95.2806 28.6465C95.2806 29.6586 96.1046 30.4791 97.1211 30.4791Z" fill="#99DFAF"/>
<path id="Vector_11" d="M87.5503 30.4791H91.9676C92.9841 30.4791 93.8081 29.6586 93.8081 28.6465C93.8081 27.6344 92.9841 26.8139 91.9676 26.8139H87.5503C86.5339 26.8139 85.7098 27.6344 85.7098 28.6465C85.7098 29.6586 86.5339 30.4791 87.5503 30.4791Z" fill="#99DFAF"/>
<path id="Vector_12" d="M76.1392 28.8395L79.7427 30.9036C80.1302 31.1351 80.6339 30.8457 80.6339 30.402V26.9104C80.6339 26.4474 80.1496 26.1774 79.7427 26.4089L76.1392 28.473C75.9842 28.5501 75.9842 28.7623 76.1392 28.8588V28.8395Z" fill="#99DFAF"/>
<path id="Vector_13" d="M83.5459 27.8871L84.2035 28.5418C84.2035 28.5418 84.272 28.6919 84.2035 28.7601L83.5459 29.4148C83.1212 29.8377 82.45 29.8241 82.039 29.4148C81.6143 28.992 81.628 28.3236 82.039 27.9144C82.4637 27.4915 83.1349 27.5052 83.5459 27.9144L83.5459 27.8871Z" fill="#99DFAF"/>
</g>
</g>
</g>
</g>
</g>
<defs>
<clipPath id="clip0_855_404">
<rect width="138" height="31" fill="white"/>
</clipPath>
</defs>
</svg>
