<svg width="28" height="22" viewBox="0 0 28 22" fill="none" xmlns="http://www.w3.org/2000/svg">
<path id="Vector" d="M27.5364 2.58824C26.54 3.04118 25.4659 3.33882 24.3529 3.48118C25.4917 2.79529 26.3717 1.70824 26.7859 0.401176C25.7117 1.04824 24.5211 1.50118 23.2659 1.76C22.2435 0.647059 20.807 0 19.1764 0C16.1353 0 13.6506 2.48471 13.6506 5.55176C13.6506 5.99177 13.7023 6.41882 13.7929 6.82C9.18585 6.58706 5.0835 4.37412 2.35291 1.02235C1.87409 1.83765 1.60232 2.79529 1.60232 3.80471C1.60232 5.73294 2.57291 7.44118 4.07409 8.41177C3.15527 8.41177 2.30115 8.15294 1.55056 7.76471V7.80353C1.55056 10.4953 3.46585 12.7471 6.00233 13.2518C5.18797 13.4746 4.33304 13.5056 3.50468 13.3424C3.85617 14.4456 4.54455 15.4109 5.47305 16.1026C6.40156 16.7944 7.52349 17.1777 8.68115 17.1988C6.71879 18.7523 4.28632 19.5921 1.7835 19.58C1.3435 19.58 0.903501 19.5541 0.463501 19.5024C2.92232 21.0812 5.84703 22 8.9788 22C19.1764 22 24.78 13.5365 24.78 6.19882C24.78 5.95294 24.78 5.72 24.767 5.47412C25.8541 4.69765 26.7859 3.71412 27.5364 2.58824Z" fill="#2A274B"/>
</svg>
