<svg width="24" height="24" viewBox="0 0 24 24" fill="none" xmlns="http://www.w3.org/2000/svg">
<g id="Link &#226;&#134;&#146; SVG">
<path id="Vector" d="M8.29 20.251C15.837 20.251 19.965 13.998 19.965 8.57599C19.965 8.39799 19.965 8.22099 19.953 8.04599C20.7562 7.46451 21.4493 6.7446 22 5.91999C21.2511 6.25199 20.4566 6.46975 19.643 6.56599C20.4996 6.05305 21.1408 5.24634 21.447 4.29599C20.6417 4.77387 19.7607 5.11072 18.842 5.29199C18.2234 4.63375 17.405 4.19782 16.5136 4.05169C15.6222 3.90556 14.7075 4.05739 13.9111 4.48366C13.1147 4.90993 12.4811 5.58686 12.1083 6.40965C11.7355 7.23243 11.6444 8.15517 11.849 9.03499C10.2176 8.95323 8.6216 8.52931 7.16465 7.79076C5.70769 7.0522 4.42233 6.01551 3.392 4.74799C2.86732 5.65119 2.70659 6.72041 2.94254 7.73795C3.17848 8.7555 3.79337 9.64486 4.662 10.225C4.00926 10.2061 3.37063 10.0305 2.8 9.71299V9.76499C2.80039 10.7123 3.1284 11.6303 3.7284 12.3633C4.3284 13.0964 5.16347 13.5994 6.092 13.787C5.48781 13.9517 4.85389 13.9756 4.239 13.857C4.50116 14.6725 5.01168 15.3856 5.69913 15.8966C6.38658 16.4076 7.21657 16.691 8.073 16.707C7.22212 17.3756 6.24779 17.8698 5.20573 18.1615C4.16367 18.4532 3.07432 18.5366 2 18.407C3.8766 19.6113 6.06019 20.2501 8.29 20.247" fill="white"/>
</g>
</svg>
