<svg width="88" height="88" viewBox="0 0 88 88" fill="none" xmlns="http://www.w3.org/2000/svg">
<path d="M29.548 0H0V87.928H29.548V41.9116V28.7332V24.1244V0Z" fill="#99DFAF"/>
<path d="M86.4697 20.9558C85.6295 17.3552 83.949 14.1146 81.5684 11.234C78.6276 7.63339 75.0566 4.89689 70.8555 2.95254C66.6543 1.00819 61.6129 0 55.7313 0H43.548V24.1964H44.4583C46.2788 24.1964 48.0293 24.4844 49.7097 25.0606C51.3201 25.6367 52.7906 26.5728 54.1209 27.9411C55.6613 29.5254 56.7116 31.6137 57.2718 34.2062C57.9019 36.8707 58.182 40.2553 58.182 44.5041V88H87.7301V33.2701C87.7301 28.6612 87.3099 24.6285 86.3997 21.0278L86.4697 20.9558Z" fill="#99DFAF"/>
</svg>
